<?xml version="1.0" standalone="no"?>
<!DOCTYPE svg PUBLIC "-//W3C//DTD SVG 20010904//EN"
 "http://www.w3.org/TR/2001/REC-SVG-20010904/DTD/svg10.dtd">
<svg version="1.0" xmlns="http://www.w3.org/2000/svg"
 width="266.000000pt" height="78.000000pt" viewBox="0 0 266.000000 78.000000"
 preserveAspectRatio="xMidYMid meet">

<g transform="translate(0.000000,78.000000) scale(0.100000,-0.100000)"
fill="#000000" stroke="none">
<path d="M120 518 c0 -2 33 -91 74 -198 68 -178 76 -195 100 -198 24 -3 27 2
85 186 34 103 61 194 61 200 0 7 -8 12 -19 12 -15 0 -27 -28 -67 -159 -27 -88
-50 -158 -53 -156 -2 2 -27 73 -56 157 l-52 153 -37 3 c-20 2 -36 2 -36 0z"/>
<path d="M488 384 c-29 -15 -39 -54 -14 -54 7 0 24 8 37 19 53 41 99 34 99
-14 0 -18 -10 -24 -59 -38 -69 -19 -101 -52 -101 -103 0 -45 30 -74 76 -74 19
0 45 5 56 11 14 8 23 8 31 0 15 -15 60 -14 75 1 18 18 15 28 -8 28 -19 0 -20
7 -20 104 0 97 -2 106 -22 120 -29 20 -114 20 -150 0z m122 -154 c0 -47 -2
-51 -34 -67 -54 -25 -85 -2 -72 53 5 17 20 31 49 44 23 11 45 20 50 20 4 0 7
-23 7 -50z"/>
<path d="M710 265 l0 -135 25 0 25 0 0 105 0 105 33 20 c76 47 97 21 97 -121
l0 -109 25 0 25 0 0 115 c0 102 -2 117 -20 135 -22 22 -106 28 -141 10 -13 -7
-19 -7 -19 0 0 5 -11 10 -25 10 l-25 0 0 -135z"/>
<path d="M1021 382 c-65 -35 -90 -125 -55 -198 20 -43 59 -64 117 -64 69 0
151 67 95 78 -10 2 -18 -1 -18 -7 0 -18 -60 -43 -86 -37 -32 8 -64 62 -64 106
0 49 29 103 62 114 24 8 32 6 58 -19 24 -23 34 -27 47 -19 28 17 26 32 -6 48
-40 21 -109 20 -150 -2z"/>
<path d="M1280 387 c-67 -34 -92 -141 -47 -208 28 -42 60 -59 112 -59 52 0 84
17 112 59 45 67 20 174 -47 208 -32 16 -98 16 -130 0z m105 -31 c50 -50 40
-164 -16 -195 -24 -13 -29 -13 -52 2 -32 21 -52 82 -43 132 8 40 45 85 71 85
9 0 27 -11 40 -24z"/>
<path d="M1500 281 c0 -118 0 -120 28 -141 23 -19 35 -21 87 -16 33 3 75 6 93
6 l32 -1 0 136 0 135 -25 0 -25 0 0 -110 0 -109 -30 -16 c-37 -19 -74 -19 -94
1 -13 12 -16 39 -16 125 l0 109 -25 0 -25 0 0 -119z"/>
<path d="M2105 390 c-70 -28 -102 -137 -63 -213 16 -31 70 -57 119 -57 54 0
112 34 117 68 5 30 -14 28 -55 -8 -35 -31 -61 -37 -94 -20 -22 12 -49 61 -49
90 0 19 6 20 100 20 l100 0 0 31 c0 22 -10 41 -34 65 -29 29 -41 34 -77 33
-24 0 -53 -4 -64 -9z m92 -35 c11 -8 23 -24 26 -35 5 -19 1 -20 -69 -20 -71 0
-74 1 -64 19 13 25 49 51 70 51 9 0 25 -7 37 -15z"/>
<path d="M2310 265 l0 -135 25 0 c25 0 25 0 25 99 0 110 4 118 64 128 26 4 36
11 36 24 0 22 -24 25 -67 8 -19 -7 -29 -7 -31 0 -2 6 -15 11 -28 11 l-24 0 0
-135z"/>
<path d="M1771 378 c0 -7 24 -67 53 -133 45 -103 55 -120 77 -123 25 -3 27 1
117 256 3 10 -2 13 -18 10 -19 -2 -28 -18 -54 -90 -17 -49 -33 -88 -37 -88 -3
0 -22 39 -41 88 -34 81 -38 87 -67 90 -21 2 -31 -1 -30 -10z"/>
</g>
</svg>
